<?xml version="1.0" encoding="UTF-8"?>
<svg id="_레이어_1" data-name="레이어_1" xmlns="http://www.w3.org/2000/svg" version="1.1" viewBox="0 0 1920 438">
  <!-- Generator: Adobe Illustrator 30.1.0, SVG Export Plug-In . SVG Version: 2.1.1 Build 136)  -->
  <defs>
    <style>
      .st0 {
        fill: #4b6aae;
      }

      .st1 {
        fill: #eb4d3a;
      }

      .st2 {
        fill: #131743;
      }
    </style>
  </defs>
  <g>
    <g>
      <path class="st2" d="M845.93,151.6l45.23.61,57.83,184.8-37.56-.51-10.27-34.13-70.02-.94-11.44,33.84-37.82-.51,64.06-183.17ZM891.61,271.07l-23.49-78.01-26.34,77.34,49.83.67Z"/>
      <path class="st2" d="M1016.42,196.67l31.69.42-.42,31.44-23-.31c-17.38-.23-24.14,8.11-24.38,26l-1.11,82.8-35.01-.47,1.22-90.47c.5-37.31,22.14-49.8,51.01-49.41Z"/>
      <path class="st2" d="M1056.67,262.41c.68-50.85,27.33-74.78,75.37-74.13,48.04.65,73.79,25.02,73.1,76.13-.69,51.11-26.54,73.25-75.35,72.59s-73.8-23.99-73.12-74.59ZM1169.36,263.92c.34-25.04-10.41-43.08-37.75-43.45-27.6-.37-38.83,17.63-39.16,42.67-.35,25.81,11.71,41.31,38.03,41.66,26.32.36,38.54-14.82,38.89-40.88Z"/>
      <path class="st2" d="M1225.21,286.03l1.27-94.55,35.52.48-1.13,83.82c-.31,23,12.38,30.07,30.78,30.32,17.63.24,30.76-6.49,31.08-30.51l1.37-82.79,35.52.47-1.23,91.49c-.5,37.06-24.99,52.82-68.43,52.24-42.68-.57-65.21-16.47-64.75-50.97Z"/>
      <path class="st2" d="M1543.74,263.46c.66-49.07,23.76-75.85,63.12-75.32,23.77.32,36.42,10.21,44.69,21.82l1.28-.5.64-66.7,35.52.48-1.71,126.75c-.69,51.36-29.02,67.59-73.23,67-46.25-.62-71.26-22.42-70.32-73.53ZM1616.02,305.33c21.72.29,35.68-11.28,36.01-35.81l-.02-17.63c.25-18.4-15.17-31.13-35.11-31.4-25.81-.35-37.01,15.09-37.37,42.18-.38,27.86,12.46,42.34,36.48,42.67Z"/>
      <path class="st2" d="M1533.09,279.76c-.14-8.86-.75-18.04-1.83-27.28-1.08-9.22-2.78-18.36-5.07-27.17-2.34-8.95-5.65-17.04-9.86-24.02-4.28-7.11-9.69-12.94-16.09-17.34-6.54-4.48-14.44-6.82-23.51-6.94h-.98c-18.08,0-34.36,6.7-48.42,19.92-.49-.58-1.04-1.24-1.67-1.97-1.89-2.22-4.43-4.51-7.57-6.81-3.12-2.29-6.81-4.38-10.95-6.21-4.33-1.91-9.31-2.92-14.79-2.99-6.32.04-13.75,1.58-21.34,4.84l7.49,22.61c.26.81.86,1.46,1.64,1.79.8.34,1.69.3,2.45-.09,2.76-1.4,5.37-2.11,7.87-2.11,2.58.03,4.97.61,7.09,1.7,2.34,1.21,4.45,2.62,6.28,4.19,1.88,1.61,3.46,3.19,4.69,4.68.62.75,1.14,1.41,1.56,1.98-3.49,5.9-6.56,12.12-9.1,18.5-2.78,6.99-5.02,14.11-6.67,21.16-1.67,7.12-2.77,14.13-3.28,20.84-.53,6.78-.49,13.13.13,18.8.13,2.43.52,5.79,1.17,10.24.65,4.52,2.01,9.02,4.03,13.38,2.06,4.46,5.05,8.44,8.88,11.81,4.06,3.57,9.49,5.43,16.39,5.52,2.28,0,4.96-.42,8.22-1.27,3.49-.93,6.92-2.81,10.17-5.6,3.23-2.77,6.01-6.58,8.29-11.33,2.28-4.77,3.49-11.01,3.59-18.56.13-9.88-.13-19.34-.78-28.12-.64-8.62-1.53-16.66-2.65-23.91-1.11-7.18-2.34-13.47-3.64-18.7-1.07-4.3-2.11-7.83-3.09-10.52l1.91-1.93c1.85-1.88,4.41-3.96,7.61-6.19,3.16-2.2,6.99-4.24,11.4-6.05,4.25-1.75,8.92-2.61,13.71-2.53,5.98.08,10.75,2.33,14.56,6.86,4.07,4.82,7.27,11.18,9.51,18.87,2.3,7.93,3.91,16.87,4.77,26.6.87,9.8,1.3,19.52,1.25,28.88-.04,9.34-.37,18.07-.98,25.97-.6,7.82-1.2,13.95-1.77,18.23-.1.83.15,1.66.68,2.27.55.63,1.34,1.01,2.18,1.02l21.24.28c1.38,0,2.58-.98,2.86-2.34.13-.63.37-2.22.93-8.76.4-4.76.78-10.8,1.15-17.98.35-7.19.46-15.33.32-24.21ZM1421.8,313.47l-.02-1.75c-.07,0-.21,0-.49-.46-.58-.94-1.09-2.22-1.5-3.8-.47-1.8-.84-3.76-1.14-5.83-.3-2.16-.52-4.24-.67-6.3-.73-6.84-.33-14.69,1.19-23.32.91-5.15,2.16-10.3,3.75-15.4.25,2.08.47,4.23.68,6.47,1.6,18.36,2.19,31.65,1.76,39.47-.33,5.83-1.62,9.17-3.56,9.17v1.75h0Z"/>
    </g>
    <path class="st2" d="M121.21,234.83c.91-67.98,35.54-95.63,86.9-94.94,43.45.59,71.04,20.13,76.76,50.88l-32.13,13.37c-5.84-22.06-22.6-30.46-44.58-30.76-28.11-.37-50.32,16.19-50.93,61.94-.62,45.74,21.16,61.12,49.01,61.49,21.98.3,39.7-6.11,46.15-28.77l31.76,14.23c-6.56,31.35-34.93,50.39-78.38,49.81-51.11-.69-85.48-29.26-84.57-97.24Z"/>
    <path class="st2" d="M302.7,137.08l35.52.47-2.59,192.18-35.52-.48,2.59-192.17Z"/>
    <path class="st2" d="M355.38,292.16c.37-27.09,20.47-39.59,46.79-39.5l44.98.35.15-10.99c.25-18.65-10.14-25.44-28.54-25.69-19.16-.26-31.29,8.02-35.25,17.42l-25.05-18.48c10.44-16.73,25.96-29.56,66.33-29.02,34.25.46,58.11,12.03,57.58,51.13l-.61,45.23c-.49,36.29-26.52,52.81-67.67,52.25-39.1-.52-59.08-16.38-58.72-42.71ZM416.21,310.62c20.7.28,30.54-8.79,30.51-25.41l.16-12.01-33.74-.46c-17.89-.24-23.35,6.84-23.49,17.57-.16,11.76,7.4,20.04,26.56,20.3Z"/>
    <path class="st2" d="M494.43,310.9l18.48-25.06c9.54,12.66,30.12,22.13,50.57,22.41,21.21.28,30.77-7,31.14-16.19.67-30.66-96.3-3.85-95.51-62.63.33-24.79,21.77-41.88,62.4-41.34,38.08.52,53.45,16.83,60.15,31.48l-23.21,15.28c-3.21-8.73-17.64-18.38-39.11-18.67-20.7-.28-27.19,7.3-27.29,14.71-.37,28.11,92.74,2.78,91.94,62.32-.37,27.34-22.06,44.17-61.93,43.64-36.55-.49-58.6-13.56-67.64-25.96Z"/>
    <path class="st2" d="M635.42,312.8l18.49-25.05c9.54,12.65,30.12,22.13,50.57,22.4,21.21.29,30.76-6.99,31.14-16.19.67-30.66-96.31-3.85-95.52-62.63.33-24.79,21.78-41.88,62.41-41.34,38.08.51,53.45,16.82,60.15,31.48l-23.21,15.28c-3.21-8.73-17.64-18.39-39.11-18.67-20.7-.28-27.19,7.3-27.29,14.71-.37,28.11,92.74,2.78,91.94,62.32-.37,27.34-22.06,44.17-61.92,43.64-36.55-.49-58.61-13.56-67.64-25.96Z"/>
  </g>
  <circle class="st0" cx="1734.47" cy="96.38" r="32.05"/>
  <circle class="st1" cx="1782.67" cy="144.57" r="16.14"/>
</svg>