<svg width="246" height="40" viewBox="0 0 246 40" fill="none" xmlns="http://www.w3.org/2000/svg">
<path d="M43.67 14.89V20.16H38.15V39.1H31.66V0H38.15V14.89H43.67Z" fill="#3C3C3D"/>
<path d="M78.68 0H72.2V39.11H78.68V0Z" fill="#3C3C3D"/>
<path d="M100.27 0.539978V15.3H91.86V0.539978H85.33V38.35H106.79V0.539978H100.26H100.27ZM100.27 33.16H91.86V20.53H100.27V33.16Z" fill="#3C3C3D"/>
<path d="M119.67 0H113.19V39.11H119.67V0Z" fill="#3C3C3D"/>
<path d="M124.65 14.76H153.72V12.92H126.95V7.78H153.72V5.72998H127.58V0.539978H160.2V14.76H163.05V19.99H124.65V14.76Z" fill="#3C3C3D"/>
<path d="M127.37 28.02H153.93V26.51H127.37V21.62H160.41V32.75H133.89V34.21H161.25V39.1H127.37V28.02Z" fill="#3C3C3D"/>
<path d="M185.93 38.35H167.44V16.56H178.94V5.81H167.36V0.539978H185.51V21.83H173.96V33.12H185.93V38.35Z" fill="#3C3C3D"/>
<path d="M196.26 14.93V0H202.53V39.1H196.26V20.16H194.08V38.56H187.85V0.329987H194.08V14.93H196.26Z" fill="#3C3C3D"/>
<path d="M245.11 33.04H206.63V38.27H245.11V33.04Z" fill="#3C3C3D"/>
<path d="M242.06 25.59C240.39 25.31 238.73 24.89 237.08 24.34C235.43 23.78 233.9 23.11 232.48 22.31C231.06 21.52 229.78 20.61 228.63 19.59C227.49 18.57 226.57 17.45 225.87 16.22C225.17 17.45 224.27 18.57 223.15 19.59C222.03 20.61 220.77 21.51 219.34 22.31C217.92 23.1 216.38 23.78 214.74 24.34C213.09 24.9 211.41 25.32 209.68 25.59L207.63 20.65C209.83 20.23 211.85 19.64 213.7 18.87C215.54 18.1 217.12 17.17 218.43 16.07C219.74 14.97 220.76 13.71 221.48 12.28C222.2 10.86 222.57 9.27999 222.57 7.54999V0.309998H229.18V7.54999C229.18 9.27999 229.54 10.85 230.27 12.28C230.99 13.7 232.01 14.96 233.32 16.07C234.63 17.18 236.2 18.11 238.03 18.87C239.86 19.64 241.88 20.23 244.12 20.65L242.07 25.59H242.06Z" fill="#3C3C3D"/>
<path d="M68.95 15.61C68.95 27.58 60.96 35.11 56.54 38.36C55.35 39.24 53.67 38.36 53.67 36.89C53.67 36.37 53.9 35.88 54.29 35.54C56.41 33.66 57.92 31.1 59.01 28.44C57.95 28.71 56.84 28.88 55.69 28.88C48.36 28.88 42.43 22.94 42.43 15.62C42.43 8.29999 48.37 2.35999 55.69 2.35999C63.01 2.35999 68.95 8.29999 68.95 15.62V15.61Z" fill="#0090C9"/>
<path d="M13.82 33.17C21.4526 33.17 27.64 26.2707 27.64 17.76C27.64 9.24927 21.4526 2.34998 13.82 2.34998C6.18743 2.34998 0 9.24927 0 17.76C0 26.2707 6.18743 33.17 13.82 33.17Z" fill="#55C6FF"/>
</svg>
